<mxfile host="Electron" agent="Mozilla/5.0 (Windows NT 10.0; Win64; x64) AppleWebKit/537.36 (KHTML, like Gecko) draw.io/24.7.8 Chrome/128.0.6613.36 Electron/32.0.1 Safari/537.36" version="24.7.8">
  <diagram name="Page-1" id="e7e014a7-5840-1c2e-5031-d8a46d1fe8dd">
    <mxGraphModel dx="1195" dy="697" grid="1" gridSize="10" guides="1" tooltips="1" connect="1" arrows="1" fold="1" page="1" pageScale="1" pageWidth="1169" pageHeight="826" background="none" math="0" shadow="0">
      <root>
        <mxCell id="0" />
        <mxCell id="1" parent="0" />
        <mxCell id="2" value="Usuario" style="swimlane;whiteSpace=wrap" parent="1" vertex="1">
          <mxGeometry x="164.5" y="128" width="280" height="570" as="geometry" />
        </mxCell>
        <mxCell id="5" value="" style="ellipse;shape=startState;fillColor=#000000;strokeColor=#ff0000;" parent="2" vertex="1">
          <mxGeometry x="100" y="40" width="30" height="30" as="geometry" />
        </mxCell>
        <mxCell id="6" value="" style="edgeStyle=elbowEdgeStyle;elbow=horizontal;verticalAlign=bottom;endArrow=open;endSize=8;strokeColor=#FF0000;endFill=1;rounded=0" parent="2" source="5" edge="1">
          <mxGeometry x="100" y="40" as="geometry">
            <mxPoint x="114.66666666666674" y="110" as="targetPoint" />
          </mxGeometry>
        </mxCell>
        <mxCell id="ETyWWGnytW1kHwhmKk6G-44" value="Acesso ao sistema" style="rounded=0;whiteSpace=wrap;html=1;" vertex="1" parent="2">
          <mxGeometry x="55.5" y="112" width="120" height="60" as="geometry" />
        </mxCell>
        <mxCell id="ETyWWGnytW1kHwhmKk6G-48" style="edgeStyle=orthogonalEdgeStyle;rounded=0;orthogonalLoop=1;jettySize=auto;html=1;entryX=0.5;entryY=0;entryDx=0;entryDy=0;" edge="1" parent="2" source="ETyWWGnytW1kHwhmKk6G-45" target="ETyWWGnytW1kHwhmKk6G-47">
          <mxGeometry relative="1" as="geometry" />
        </mxCell>
        <mxCell id="ETyWWGnytW1kHwhmKk6G-45" value="Preenchimento dos dados da bateria" style="rounded=0;whiteSpace=wrap;html=1;" vertex="1" parent="2">
          <mxGeometry x="55.5" y="232" width="120" height="60" as="geometry" />
        </mxCell>
        <mxCell id="ETyWWGnytW1kHwhmKk6G-47" value="Acionamento da geração do QR Code" style="rounded=0;whiteSpace=wrap;html=1;" vertex="1" parent="2">
          <mxGeometry x="55.5" y="332" width="120" height="60" as="geometry" />
        </mxCell>
        <mxCell id="3" value="Sistema" style="swimlane;whiteSpace=wrap" parent="1" vertex="1">
          <mxGeometry x="444.5" y="128" width="280" height="570" as="geometry" />
        </mxCell>
        <mxCell id="ETyWWGnytW1kHwhmKk6G-41" value="Iniciação do formulario" style="rounded=0;whiteSpace=wrap;html=1;" vertex="1" parent="3">
          <mxGeometry x="80" y="160" width="120" height="60" as="geometry" />
        </mxCell>
        <mxCell id="ETyWWGnytW1kHwhmKk6G-49" value="Geração do QR Code" style="rounded=0;whiteSpace=wrap;html=1;" vertex="1" parent="3">
          <mxGeometry x="75.5" y="392" width="120" height="60" as="geometry" />
        </mxCell>
        <mxCell id="ETyWWGnytW1kHwhmKk6G-53" value="" style="ellipse;html=1;shape=endState;fillColor=#000000;strokeColor=#ff0000;" vertex="1" parent="3">
          <mxGeometry x="120.5" y="502" width="30" height="30" as="geometry" />
        </mxCell>
        <mxCell id="ETyWWGnytW1kHwhmKk6G-55" style="edgeStyle=orthogonalEdgeStyle;rounded=0;orthogonalLoop=1;jettySize=auto;html=1;entryX=0.528;entryY=0.211;entryDx=0;entryDy=0;entryPerimeter=0;fillColor=#a20025;strokeColor=#ff0000;" edge="1" parent="3" source="ETyWWGnytW1kHwhmKk6G-49" target="ETyWWGnytW1kHwhmKk6G-53">
          <mxGeometry relative="1" as="geometry">
            <Array as="points">
              <mxPoint x="136" y="472" />
              <mxPoint x="136" y="472" />
            </Array>
          </mxGeometry>
        </mxCell>
        <mxCell id="4" value="Banco de Dados" style="swimlane;whiteSpace=wrap" parent="1" vertex="1">
          <mxGeometry x="724.5" y="128" width="280" height="570" as="geometry" />
        </mxCell>
        <mxCell id="ETyWWGnytW1kHwhmKk6G-60" style="edgeStyle=orthogonalEdgeStyle;rounded=0;orthogonalLoop=1;jettySize=auto;html=1;entryX=0.5;entryY=0;entryDx=0;entryDy=0;strokeColor=#FF0000;" edge="1" parent="4" source="ETyWWGnytW1kHwhmKk6G-51" target="ETyWWGnytW1kHwhmKk6G-54">
          <mxGeometry relative="1" as="geometry" />
        </mxCell>
        <mxCell id="ETyWWGnytW1kHwhmKk6G-51" value="Salvamento dos dados" style="rounded=0;whiteSpace=wrap;html=1;" vertex="1" parent="4">
          <mxGeometry x="95.5" y="392" width="120" height="60" as="geometry" />
        </mxCell>
        <mxCell id="ETyWWGnytW1kHwhmKk6G-54" value="" style="ellipse;html=1;shape=endState;fillColor=#000000;strokeColor=#ff0000;" vertex="1" parent="4">
          <mxGeometry x="140.5" y="502" width="30" height="30" as="geometry" />
        </mxCell>
        <mxCell id="ETyWWGnytW1kHwhmKk6G-42" style="edgeStyle=orthogonalEdgeStyle;rounded=0;orthogonalLoop=1;jettySize=auto;html=1;entryX=0.5;entryY=0;entryDx=0;entryDy=0;" edge="1" parent="1" target="ETyWWGnytW1kHwhmKk6G-41">
          <mxGeometry relative="1" as="geometry">
            <mxPoint x="334.5" y="263" as="sourcePoint" />
          </mxGeometry>
        </mxCell>
        <mxCell id="ETyWWGnytW1kHwhmKk6G-46" style="edgeStyle=orthogonalEdgeStyle;rounded=0;orthogonalLoop=1;jettySize=auto;html=1;entryX=0.5;entryY=0;entryDx=0;entryDy=0;" edge="1" parent="1" source="ETyWWGnytW1kHwhmKk6G-41" target="ETyWWGnytW1kHwhmKk6G-45">
          <mxGeometry relative="1" as="geometry" />
        </mxCell>
        <mxCell id="ETyWWGnytW1kHwhmKk6G-52" style="edgeStyle=orthogonalEdgeStyle;rounded=0;orthogonalLoop=1;jettySize=auto;html=1;entryX=0.5;entryY=0;entryDx=0;entryDy=0;" edge="1" parent="1" source="ETyWWGnytW1kHwhmKk6G-47" target="ETyWWGnytW1kHwhmKk6G-51">
          <mxGeometry relative="1" as="geometry" />
        </mxCell>
        <mxCell id="ETyWWGnytW1kHwhmKk6G-61" style="edgeStyle=orthogonalEdgeStyle;rounded=0;orthogonalLoop=1;jettySize=auto;html=1;entryX=0.5;entryY=0;entryDx=0;entryDy=0;" edge="1" parent="1" source="ETyWWGnytW1kHwhmKk6G-47" target="ETyWWGnytW1kHwhmKk6G-49">
          <mxGeometry relative="1" as="geometry" />
        </mxCell>
      </root>
    </mxGraphModel>
  </diagram>
</mxfile>
